<?xml version="1.0" standalone="no"?>
<!DOCTYPE svg PUBLIC "-//W3C//DTD SVG 20010904//EN"
 "http://www.w3.org/TR/2001/REC-SVG-20010904/DTD/svg10.dtd">
<svg version="1.0" xmlns="http://www.w3.org/2000/svg"
 width="1350.000000pt" height="590.000000pt" viewBox="0 0 1350.000000 590.000000"
 preserveAspectRatio="xMidYMid meet">

<g transform="translate(0.000000,590.000000) scale(0.100000,-0.100000)"
fill="#000000" stroke="none">
<path d="M2591 5290 c-42 -20 -43 -21 -37 -58 17 -95 22 -248 13 -377 -7 -96
-7 -282 2 -590 6 -247 11 -601 11 -785 0 -304 -2 -348 -24 -472 -12 -76 -21
-140 -18 -143 3 -3 16 -5 28 -5 14 0 31 -12 44 -30 12 -16 29 -30 38 -30 10 0
28 -7 40 -16 18 -12 22 -22 17 -44 -4 -18 1 -39 16 -64 20 -34 24 -36 73 -36
61 0 81 16 115 95 17 39 24 46 32 35 13 -21 1 -265 -16 -315 -17 -52 -18 -59
-19 -190 -1 -66 3 -116 10 -125 19 -25 23 -60 9 -73 -18 -19 -354 -14 -463 7
-111 21 -125 29 -119 69 8 50 40 152 49 155 11 5 10 50 -2 73 -8 14 -21 19
-49 19 -36 0 -43 -5 -105 -81 -55 -68 -66 -87 -66 -119 0 -20 -3 -52 -7 -71
-5 -28 -7 -30 -14 -14 -4 11 -8 32 -8 48 -1 30 -12 35 -31 12 -18 -22 -30 -18
-30 10 0 14 -4 25 -9 25 -8 0 -19 -12 -77 -83 -20 -25 -32 -14 -39 37 -10 66
33 140 50 87 9 -30 19 -26 51 22 27 40 29 48 29 148 0 92 3 110 19 128 l20 22
12 -28 c11 -24 12 -25 13 -7 2 46 -12 82 -49 122 -34 39 -37 46 -30 77 4 19 4
35 0 35 -5 0 -28 -22 -52 -50 -24 -27 -46 -50 -50 -50 -14 0 -8 37 7 50 26 21
65 98 65 127 0 15 9 43 20 61 25 40 25 65 3 103 -17 29 -17 31 6 72 13 23 21
39 17 35 -4 -3 -22 -2 -40 3 -24 7 -43 5 -67 -6 -19 -8 -28 -14 -21 -15 20 0
14 -38 -8 -50 -37 -20 -54 8 -25 40 14 16 12 17 -35 12 -55 -5 -65 6 -28 32
19 14 20 16 5 22 -10 3 -32 3 -50 -1 -17 -3 -57 -9 -87 -13 l-55 -7 -3 -80
c-4 -88 6 -133 45 -212 l26 -52 -27 -71 c-37 -100 -46 -253 -21 -345 9 -36 21
-68 26 -71 13 -8 11 -44 -7 -94 -23 -63 -25 -517 -3 -531 22 -14 123 -11 145
5 18 14 18 15 -8 21 -38 10 -56 33 -32 41 11 4 26 13 36 21 11 10 18 11 23 4
3 -6 13 -11 22 -11 13 0 15 8 9 46 -3 26 -2 52 3 58 10 14 2 146 -10 146 -5 0
-14 -9 -21 -20 -15 -24 -31 -25 -49 -4 -11 14 -11 18 2 28 8 6 28 28 43 48 16
21 32 35 37 32 5 -3 7 -9 4 -14 -3 -5 1 -14 8 -22 9 -9 16 -57 21 -153 10
-215 16 -258 33 -270 11 -9 13 -14 5 -19 -15 -9 -15 -219 -2 -696 12 -423 18
-556 26 -594 3 -16 7 -71 8 -123 1 -75 -2 -94 -14 -98 -24 -8 -75 -59 -76 -76
-1 -15 23 -17 232 -18 l233 -2 3 58 c2 46 7 59 21 61 15 3 17 -5 17 -57 0 -59
1 -61 26 -61 25 0 25 1 23 75 -1 42 1 78 5 82 6 7 11 -68 7 -125 l-3 -32 134
1 133 0 -60 18 c-84 24 -108 39 -99 59 4 9 7 33 8 52 1 30 6 38 39 53 56 28
145 33 189 13 33 -16 40 -16 79 -3 42 14 44 14 77 -12 29 -23 33 -30 28 -61
-3 -19 -6 -45 -6 -58 0 -13 -4 -21 -9 -18 -5 3 -14 -1 -21 -9 -15 -18 -63 -20
-88 -4 -14 9 -25 7 -52 -10 l-35 -21 308 0 c289 0 307 1 307 18 0 10 5 23 12
30 9 9 9 12 -1 12 -10 0 -10 4 -3 13 13 15 22 186 11 193 -5 3 -9 10 -9 15 0
6 5 7 10 4 7 -5 8 3 3 22 -4 15 -6 62 -5 103 1 41 3 127 5 190 1 63 6 120 10
127 4 6 3 15 -3 18 -8 5 -8 11 0 19 24 30 41 434 22 512 -6 21 -13 51 -16 65
-6 26 -8 26 -116 33 -60 4 -135 14 -165 22 -75 19 -73 19 -78 -23 -3 -32 -4
-29 -5 14 -3 73 22 92 146 110 l42 6 0 56 c0 32 9 79 21 110 l20 55 -23 60
c-32 85 -32 271 1 399 l23 88 -32 76 c-26 62 -31 84 -25 119 5 35 10 44 26 44
15 0 19 5 15 18 -3 9 -10 41 -16 70 -5 30 -12 58 -16 63 -12 20 -56 211 -75
324 -10 66 -24 215 -30 330 -17 348 -19 375 -34 375 -8 0 -18 -22 -25 -57 -7
-32 -18 -78 -27 -103 -19 -59 -9 -358 14 -404 9 -16 19 -77 24 -136 8 -107 29
-222 48 -273 14 -37 14 -184 0 -193 -6 -3 -18 -19 -28 -35 l-17 -28 -36 37
c-22 23 -42 59 -53 95 -10 31 -21 57 -25 57 -15 0 -20 52 -9 85 10 27 10 51 0
117 -21 139 -29 251 -18 278 5 14 13 70 17 125 9 110 24 207 73 455 26 134 32
186 30 279 -1 85 -5 118 -16 129 -13 13 -16 12 -26 -7 -15 -28 -48 -136 -56
-186 -8 -46 -30 -85 -48 -85 -7 0 -18 10 -26 22 l-14 22 -17 -22 c-26 -32 -33
-27 -27 21 9 70 16 138 22 212 3 39 15 120 27 181 20 103 21 120 9 210 -11 84
-10 121 3 241 9 87 21 151 30 165 17 26 20 88 14 278 l-3 115 -42 3 c-23 2
-52 -2 -64 -8 -19 -11 -21 -17 -15 -69 4 -32 16 -82 27 -112 13 -33 19 -68 16
-89 -2 -19 -1 -44 4 -55 5 -14 8 -15 9 -5 1 8 6 2 11 -15 9 -31 2 -78 -11 -70
-4 2 -10 -13 -14 -35 -4 -26 -16 -49 -35 -66 -23 -20 -32 -40 -41 -92 -14 -73
-30 -111 -55 -132 -28 -23 -36 5 -35 120 0 58 -2 171 -6 252 -7 166 -3 194 30
209 13 6 30 22 37 36 13 24 16 100 4 111 -3 3 -30 7 -60 9 -30 1 -65 9 -77 17
-21 14 -27 13 -67 -4z m339 -284 c0 -8 -4 -18 -10 -21 -5 -3 -10 3 -10 14 0
12 5 21 10 21 6 0 10 -6 10 -14z m-980 -2001 c0 -9 -12 -21 -27 -28 -16 -6
-31 -16 -35 -22 -4 -5 -10 -7 -13 -3 -4 4 3 20 16 37 24 33 59 42 59 16z m35
-406 c4 -5 0 -18 -9 -28 -9 -10 -16 -27 -16 -39 0 -21 -36 -49 -47 -38 -4 3
-1 17 5 31 6 14 9 32 6 40 -4 8 -4 22 0 30 6 17 52 20 61 4z m65 -149 c0 -5
-9 -10 -21 -10 -11 0 -17 5 -14 10 3 6 13 10 21 10 8 0 14 -4 14 -10z m1092
-15 c0 -5 -5 -11 -11 -13 -6 -2 -11 4 -11 13 0 9 5 15 11 13 6 -2 11 -8 11
-13z m-975 -457 c-3 -7 -5 -2 -5 12 0 14 2 19 5 13 2 -7 2 -19 0 -25z m-69
-169 c2 -24 8 -49 13 -55 5 -6 6 -25 3 -42 -7 -36 15 -53 41 -32 22 18 19 50
-5 50 -25 0 -27 28 -2 37 9 4 20 11 24 17 5 7 8 4 8 -6 0 -23 6 -25 79 -37
105 -17 106 -18 119 -173 33 -371 43 -477 52 -523 6 -27 12 -102 15 -165 3
-63 13 -202 23 -307 10 -106 14 -189 11 -185 -4 4 -12 57 -18 117 -10 115 -72
751 -96 987 -7 75 -15 141 -18 145 -3 4 -28 6 -56 5 -42 -3 -52 -8 -56 -25 -7
-27 11 -519 24 -672 9 -103 34 -591 36 -680 0 -33 -3 -40 -20 -40 -18 0 -20 7
-21 61 -1 34 -4 65 -6 70 -3 5 -6 61 -6 124 -1 63 -8 184 -16 269 -9 85 -13
157 -11 161 5 9 -11 351 -25 515 -7 71 -18 144 -25 162 -16 37 -52 57 -73 40
-27 -21 -36 10 -34 113 1 56 4 105 8 111 13 21 29 1 32 -42z m320 28 c5 -25
-28 -34 -44 -12 -7 10 -11 22 -8 27 10 15 49 4 52 -15z m13 -1507 c2 -68 -1
-84 -14 -92 -15 -8 -17 1 -17 95 0 157 27 154 31 -3z m9 -154 c0 -21 -20 -30
-33 -17 -9 9 -8 14 3 21 21 14 30 12 30 -4z m-155 -63 c-2 -38 -4 -70 -4 -72
-1 -2 -8 2 -16 9 -8 7 -13 16 -10 20 3 5 -5 16 -17 24 -12 9 -17 16 -10 16 6
0 18 16 26 35 23 55 35 42 31 -32z m-207 -60 c5 -18 -23 -16 -39 3 -11 14 -10
15 11 12 13 -1 25 -9 28 -15z"/>
<path d="M3074 5258 c3 -24 6 -72 7 -108 2 -73 7 -92 20 -84 5 3 9 40 9 83 0
42 5 82 11 88 6 6 9 21 7 34 -2 18 -10 25 -31 27 -27 3 -28 3 -23 -40z"/>
<path d="M3095 4790 c-4 -28 -5 -53 -2 -56 10 -10 38 49 35 73 -5 47 -26 37
-33 -17z"/>
<path d="M3047 4602 c-21 -71 -22 -112 -3 -112 17 0 38 107 28 145 -7 23 -9
20 -25 -33z"/>
<path d="M6867 4596 c-4 -9 -3 -23 0 -33 4 -11 3 -14 -5 -9 -7 4 -12 16 -12
27 0 10 -4 19 -8 19 -13 0 -8 -38 6 -52 10 -10 17 -7 34 10 20 20 21 23 7 38
-15 14 -17 14 -22 0z m23 -16 c0 -5 -4 -10 -10 -10 -5 0 -10 5 -10 10 0 6 5
10 10 10 6 0 10 -4 10 -10z"/>
<path d="M7825 4600 c-3 -5 3 -10 15 -10 12 0 18 5 15 10 -3 6 -10 10 -15 10
-5 0 -12 -4 -15 -10z"/>
<path d="M10060 4591 c-13 -25 -13 -32 1 -28 6 1 14 -4 17 -12 2 -8 0 -11 -6
-7 -6 3 -14 1 -18 -5 -4 -7 -3 -9 3 -6 6 4 14 0 17 -9 9 -23 7 -31 -3 -16 -7
11 -12 12 -29 1 -23 -14 -19 -39 7 -39 14 0 14 2 1 10 -23 15 -5 22 24 9 27
-13 37 -33 11 -23 -9 4 -15 0 -15 -9 0 -8 -6 -18 -12 -20 -10 -4 -10 -8 1 -15
12 -8 12 -13 2 -25 -6 -9 -8 -18 -3 -21 4 -2 5 -30 2 -61 -5 -45 -3 -55 8 -50
7 3 19 5 25 5 7 0 6 4 -3 10 -8 5 -10 10 -4 10 7 0 8 17 4 50 -4 31 -2 51 4
54 7 3 5 9 -4 15 -9 6 -10 11 -3 11 6 0 13 10 15 23 2 14 9 21 21 21 9 -1 17
2 17 7 0 5 -6 9 -14 9 -17 0 -21 5 -30 42 -4 17 -1 32 9 42 8 8 15 20 15 26 0
6 5 8 10 5 6 -4 8 -11 5 -16 -4 -5 -1 -9 5 -9 7 0 9 7 6 16 -3 9 -6 18 -6 20
0 2 -7 4 -15 4 -8 0 -15 -5 -15 -10 0 -7 -6 -7 -20 0 -15 8 -21 6 -30 -9z"/>
<path d="M6417 4586 c-4 -10 -11 -14 -17 -11 -5 3 -10 2 -10 -4 0 -5 5 -13 10
-16 6 -4 7 -11 4 -17 -4 -6 -2 -8 3 -5 6 4 11 -3 11 -16 1 -21 11 -78 30 -164
5 -24 15 -49 22 -58 8 -10 9 -15 2 -15 -6 0 -9 -6 -6 -14 3 -8 13 -13 22 -11
9 2 20 4 24 4 3 1 4 11 1 24 -4 18 -3 19 6 7 9 -12 11 -9 12 15 2 37 2 35 -6
68 -5 17 -3 27 4 27 6 0 11 -10 11 -22 0 -12 3 -19 6 -15 9 9 -5 57 -16 57 -5
0 -12 -11 -16 -24 -4 -17 -11 -23 -22 -19 -12 5 -14 2 -8 -13 4 -10 10 -39 12
-64 l4 -45 -15 29 c-17 32 -20 50 -6 42 5 -4 7 4 3 16 -5 21 -6 21 -13 2 -5
-13 -8 -7 -8 23 -1 23 -5 45 -11 48 -5 3 -10 11 -10 16 0 6 4 8 9 5 10 -6 25
43 16 52 -3 3 -5 -2 -5 -11 0 -9 -4 -17 -8 -17 -5 0 -7 24 -5 53 3 35 0 58
-10 71 -13 17 -14 17 -20 2z m20 -88 c-3 -7 -5 -2 -5 12 0 14 2 19 5 13 2 -7
2 -19 0 -25z"/>
<path d="M6567 4581 c-3 -11 -2 -23 1 -26 3 -3 7 -18 9 -33 3 -23 2 -24 -7 -9
-6 9 -8 23 -4 30 5 9 4 9 -5 1 -20 -18 -33 -92 -21 -115 12 -21 30 -17 30 7 0
8 -4 13 -9 9 -14 -8 -21 9 -10 25 7 13 9 13 9 0 1 -12 4 -11 15 4 11 15 15 16
19 5 11 -36 16 -41 10 -14 -3 17 -7 46 -10 65 -3 28 -2 31 6 15 l10 -20 -3 20
c-2 11 -9 19 -16 17 -8 -2 -10 4 -6 18 3 11 2 20 -3 20 -5 0 -12 -9 -15 -19z"/>
<path d="M6731 4563 c-6 -20 -8 -39 -6 -42 3 -2 5 2 5 10 0 11 2 11 10 -1 5
-8 10 -22 10 -30 0 -13 -1 -13 -10 0 -8 12 -10 11 -10 -6 0 -12 -7 -24 -14
-27 -10 -4 -14 -19 -13 -46 2 -34 -1 -40 -21 -44 -19 -4 -21 -1 -16 16 4 12 2
17 -4 13 -6 -3 -12 12 -16 37 -3 23 -7 51 -9 62 -3 11 -5 25 -6 30 -1 6 -6 0
-12 -13 -6 -16 -5 -33 5 -55 8 -21 10 -41 5 -56 -10 -25 -2 -71 12 -71 5 0 9
-9 9 -19 0 -11 5 -23 10 -26 6 -4 8 -15 5 -26 -5 -14 -2 -19 12 -19 15 0 16 2
3 11 -12 9 -11 10 8 6 26 -6 28 1 5 20 -10 7 -13 13 -8 12 27 -4 35 3 35 30 0
17 4 32 9 35 4 3 6 18 3 32 -4 20 -2 25 8 19 9 -5 10 -2 6 13 -4 12 0 34 9 52
13 24 13 35 4 53 -11 20 -11 21 4 9 14 -12 14 -10 5 22 -14 46 -24 45 -37 -1z"/>
<path d="M6770 4590 c0 -5 5 -10 10 -10 6 0 10 5 10 10 0 6 -4 10 -10 10 -5 0
-10 -4 -10 -10z"/>
<path d="M7173 4593 c9 -2 23 -2 30 0 6 3 -1 5 -18 5 -16 0 -22 -2 -12 -5z"/>
<path d="M8125 4582 c-5 -14 -7 -14 -15 -2 -7 11 -10 11 -10 2 0 -18 30 -28
40 -13 5 10 9 9 13 -3 4 -9 17 -15 29 -15 l23 2 -23 4 c-19 4 -20 6 -8 19 15
14 45 10 47 -7 1 -5 2 -13 3 -19 0 -5 9 -19 19 -31 20 -23 20 -22 -37 -61 -19
-13 4 -22 32 -12 23 8 28 16 32 57 5 38 3 47 -10 47 -12 0 -12 2 -1 9 9 6 10
11 2 15 -6 4 -11 4 -11 -1 0 -4 -4 -2 -9 6 -5 8 -30 15 -59 17 -40 3 -52 0
-57 -14z m115 -122 c0 -5 -5 -10 -11 -10 -5 0 -7 5 -4 10 3 6 8 10 11 10 2 0
4 -4 4 -10z"/>
<path d="M7161 4566 c-8 -10 -7 -19 7 -37 11 -13 17 -29 15 -36 -2 -6 1 -14 7
-18 11 -7 7 35 -5 55 -3 5 0 10 7 10 9 0 9 3 -2 10 -13 9 -13 11 0 20 13 8 13
10 -1 10 -9 0 -22 -6 -28 -14z"/>
<path d="M7816 4565 c10 -25 -5 -65 -24 -66 -10 0 -12 -3 -4 -6 6 -2 12 -11
12 -18 0 -8 4 -16 9 -19 13 -8 42 4 35 15 -3 5 0 9 5 9 6 0 11 -7 11 -15 0 -8
-4 -15 -10 -15 -5 0 -10 -4 -10 -10 0 -18 18 -10 25 10 4 11 11 18 16 15 5 -4
9 0 9 9 0 8 6 17 13 20 6 4 2 4 -10 2 -15 -3 -23 1 -24 10 -1 8 -3 19 -4 24
-1 6 -3 19 -4 30 -1 14 -8 20 -26 20 -18 0 -23 -4 -19 -15z m44 -55 c0 -5 -7
-10 -15 -10 -8 0 -15 -5 -15 -11 0 -5 -5 -7 -12 -3 -7 5 -5 11 7 21 22 16 35
17 35 3z"/>
<path d="M8103 4419 c-2 -84 1 -128 7 -124 6 3 11 25 12 48 l1 42 4 -38 c3
-24 -2 -48 -11 -62 -21 -32 -20 -33 10 -27 18 3 22 8 15 15 -12 12 -15 31 -3
24 4 -3 8 37 9 89 2 52 -1 94 -7 94 -5 0 -6 -16 -3 -35 3 -19 1 -35 -4 -35 -5
0 -10 28 -11 62 -3 115 -17 78 -19 -53z"/>
<path d="M8130 4524 c0 -14 4 -23 9 -19 11 6 10 45 -1 45 -4 0 -8 -12 -8 -26z"/>
<path d="M8280 4503 c0 -18 2 -33 4 -33 9 0 13 39 5 51 -6 10 -9 4 -9 -18z"/>
<path d="M7060 4509 c0 -5 -8 -9 -17 -7 -10 2 -17 -3 -15 -9 1 -7 -3 -13 -9
-13 -6 0 -8 -7 -5 -16 5 -14 4 -15 -9 -4 -9 7 -17 11 -18 9 -1 -2 -11 -15 -22
-28 l-20 -24 23 7 c13 4 22 3 22 -3 0 -5 -9 -13 -21 -16 -22 -7 -19 -17 6 -21
15 -2 20 13 16 50 -1 15 2 16 13 7 11 -9 16 -6 24 19 6 16 16 30 21 30 6 0 8
-7 5 -15 -4 -8 -1 -15 6 -15 6 0 8 5 5 10 -12 19 18 10 50 -15 18 -13 36 -21
40 -17 4 4 6 -3 3 -15 -4 -16 -2 -20 8 -16 21 8 17 34 -6 40 -20 5 -28 23 -11
23 12 0 41 -29 41 -41 0 -5 5 -9 10 -9 19 0 -21 48 -48 59 -15 6 -42 17 -59
25 -19 9 -33 11 -33 5z m27 -15 c-3 -3 -12 -4 -19 -1 -8 3 -5 6 6 6 11 1 17
-2 13 -5z m38 -14 c3 -6 -1 -7 -9 -4 -18 7 -21 14 -7 14 6 0 13 -4 16 -10z"/>
<path d="M7150 4511 c0 -6 5 -13 10 -16 6 -3 10 1 10 9 0 9 -4 16 -10 16 -5 0
-10 -4 -10 -9z"/>
<path d="M7376 4512 c-15 -3 -16 -6 -5 -13 9 -6 10 -9 2 -9 -6 0 -15 4 -18 10
-9 15 -52 -18 -59 -46 -4 -13 -11 -24 -17 -24 -8 0 -8 -4 0 -14 9 -10 9 -16 1
-21 -8 -5 -8 -11 1 -21 8 -10 8 -14 0 -14 -19 0 -12 -24 19 -62 30 -36 33 -37
95 -37 47 1 71 6 87 19 l22 17 -22 12 c-17 9 -23 8 -30 -6 -7 -11 -24 -17 -51
-18 -22 0 -43 -4 -47 -8 -14 -14 -26 -7 -14 8 10 11 8 19 -8 39 -13 17 -22 22
-29 15 -8 -8 -13 -7 -18 2 -6 8 -4 10 5 4 10 -6 12 -3 7 14 -4 15 0 24 11 28
9 4 17 2 19 -4 4 -10 161 -9 171 2 3 3 11 0 19 -6 8 -8 13 -8 13 -1 0 6 -6 13
-12 15 -10 4 -9 8 2 16 12 9 12 11 -3 17 -9 3 -17 14 -17 24 0 24 -24 42 -45
33 -13 -4 -16 -3 -11 5 5 8 1 10 -10 5 -11 -4 -15 -2 -11 4 8 12 -19 21 -47
15z m-42 -37 c-4 -10 0 -15 16 -15 12 0 18 4 15 10 -4 7 3 9 22 5 23 -5 25 -4
13 5 -13 10 -12 11 3 6 10 -3 23 -6 28 -6 6 0 8 -3 6 -7 -3 -5 6 -16 19 -26
13 -10 24 -13 24 -7 0 5 -4 10 -10 10 -5 0 -7 7 -3 17 5 14 8 13 15 -7 5 -14
4 -28 -3 -37 -7 -7 -9 -17 -5 -20 4 -4 11 -1 16 7 7 11 10 11 10 2 0 -16 -33
-29 -38 -14 -2 8 -11 8 -28 1 -32 -12 -54 -12 -36 0 9 5 3 8 -17 7 -20 -1 -29
-5 -27 -13 3 -7 -1 -10 -10 -6 -7 3 -14 9 -14 14 0 5 -5 8 -11 7 -6 -2 -14 3
-17 11 -2 8 0 11 6 8 5 -4 15 0 22 8 11 13 10 14 -6 9 -14 -4 -15 -3 -5 4 10
7 10 11 1 17 -9 6 -9 10 1 16 19 12 19 11 13 -6z m-21 -160 c-3 -9 -8 -14 -10
-11 -3 3 -2 9 2 15 9 16 15 13 8 -4z m27 -9 c0 -3 -4 -8 -10 -11 -5 -3 -10 -1
-10 4 0 6 5 11 10 11 6 0 10 -2 10 -4z m113 -33 c-7 -2 -19 -2 -25 0 -7 3 -2
5 12 5 14 0 19 -2 13 -5z"/>
<path d="M7649 4515 c-1 -5 -1 -14 0 -19 1 -5 -5 -6 -14 -2 -9 3 -25 -3 -37
-13 l-20 -20 21 6 c12 3 21 1 21 -6 0 -6 -8 -11 -17 -12 -15 0 -15 -2 2 -9 14
-6 16 -9 5 -10 -8 -2 -19 -2 -23 -1 -5 1 -5 -3 -2 -9 4 -6 14 -9 22 -5 13 4
13 3 4 -9 -9 -11 -8 -15 5 -20 10 -4 22 -2 27 3 7 7 15 7 22 1 8 -7 12 -5 12
5 0 8 -8 15 -18 15 -10 0 -23 9 -29 20 -8 15 -6 21 9 30 26 14 48 13 54 -2 3
-10 8 -10 21 2 17 13 17 15 -4 32 -12 10 -27 15 -32 12 -6 -4 -14 0 -19 7 -5
8 -9 10 -10 4z m66 -34 c3 -5 1 -12 -5 -16 -5 -3 -10 -2 -10 4 0 5 -8 12 -17
14 -14 4 -13 5 4 6 12 0 24 -3 28 -8z"/>
<path d="M8820 4509 c0 -6 -6 -9 -12 -6 -7 2 -22 0 -33 -6 -19 -10 -19 -10 0
-18 17 -6 16 -8 -7 -8 -16 -1 -28 4 -28 10 0 5 -5 7 -11 3 -8 -4 -3 -12 12
-21 21 -11 21 -13 4 -11 -16 2 -20 -3 -20 -24 1 -33 -14 -38 -17 -5 -1 12 -4
-18 -7 -68 -6 -90 1 -114 26 -93 18 15 17 42 -2 34 -11 -4 -15 2 -15 20 0 14
4 23 9 20 12 -8 18 12 16 61 0 23 1 40 4 38 2 -3 15 5 29 15 26 21 62 27 62
10 0 -5 6 -7 14 -4 17 7 28 -30 13 -45 -8 -8 -8 -11 1 -11 8 0 12 -19 12 -55
0 -30 5 -55 10 -55 6 0 10 18 10 39 0 22 5 52 10 67 8 21 7 31 -5 44 -17 19
-20 34 -5 25 5 -3 7 0 4 9 -3 9 -12 12 -21 9 -10 -4 -14 -2 -10 4 4 5 -5 15
-18 21 -17 8 -25 8 -25 1z m-5 -27 c-3 -3 -11 0 -18 7 -9 10 -8 11 6 5 10 -3
15 -9 12 -12z"/>
<path d="M9825 4503 c-43 -15 -93 -72 -73 -84 6 -4 7 -12 3 -19 -6 -9 -9 -9
-15 -1 -3 7 -7 -3 -7 -21 0 -18 2 -28 4 -21 3 7 11 9 19 6 20 -7 18 -23 -3
-23 -15 0 -13 -4 7 -20 14 -11 21 -20 16 -20 -5 0 -1 -9 9 -20 10 -11 23 -20
29 -20 6 0 4 5 -4 10 -13 8 -12 10 3 10 9 0 17 6 17 14 0 13 -27 31 -41 28 -4
-1 -9 10 -12 23 -2 14 0 25 4 25 14 0 10 20 -6 37 -17 17 -16 34 3 41 8 2 10
-3 5 -15 -6 -17 -6 -17 13 1 10 11 17 22 16 24 -2 3 2 8 9 13 7 4 34 -1 61
-11 26 -10 48 -15 49 -12 0 4 6 -9 13 -28 14 -37 9 -54 -27 -97 -18 -20 -18
-21 0 -33 16 -10 15 -11 -7 -6 -63 15 -76 17 -56 8 19 -8 18 -9 -5 -16 l-24
-7 22 -11 c45 -22 145 46 129 88 -3 8 -11 12 -17 8 -8 -4 -8 0 0 15 7 11 14
21 17 21 3 0 2 -4 -1 -10 -3 -5 -2 -10 3 -10 12 0 10 50 -2 69 -7 11 -10 11
-18 0 -7 -10 -8 -8 -5 8 3 14 -2 28 -14 39 -11 10 -19 12 -19 6 0 -13 -38 -16
-65 -5 -15 5 -14 8 6 19 30 17 16 16 -36 -3z m-5 -23 c-20 -13 -33 -13 -25 0
3 6 14 10 23 10 15 0 15 -2 2 -10z m125 -10 c4 -6 -1 -7 -11 -3 -12 4 -15 3
-10 -5 5 -8 2 -10 -9 -5 -13 5 -14 7 -3 14 17 11 26 11 33 -1z m15 -160 c0 -5
-7 -7 -15 -4 -8 4 -12 10 -9 15 6 11 24 2 24 -11z m-150 -5 c7 -9 8 -15 2 -15
-5 0 -12 7 -16 15 -3 8 -4 15 -2 15 2 0 9 -7 16 -15z m67 -41 c-3 -3 -12 -4
-19 -1 -8 3 -5 6 6 6 11 1 17 -2 13 -5z"/>
<path d="M8423 4497 c-4 -8 -16 -16 -25 -20 -10 -3 -24 -23 -33 -43 -17 -42
-19 -56 -4 -34 8 12 10 12 8 -5 -1 -11 1 -28 6 -38 6 -15 10 -16 16 -5 6 9 9
9 9 1 0 -19 -21 -27 -32 -12 -8 11 -8 10 -4 -4 3 -10 6 -23 6 -28 0 -6 10 -8
23 -5 12 3 16 3 10 0 -20 -9 -15 -24 5 -17 9 3 14 2 10 -2 -15 -16 29 -36 54
-25 22 10 22 10 -4 5 -30 -6 -39 11 -10 18 12 3 11 5 -6 6 -15 1 -21 5 -16 13
4 6 3 8 -3 5 -6 -4 -16 0 -23 8 -9 11 -9 15 -1 15 8 0 6 10 -4 30 -9 17 -11
30 -6 30 6 0 8 6 5 14 -3 7 12 28 33 46 l37 33 -29 -7 c-17 -3 -25 -3 -20 1
10 8 18 33 10 33 -2 0 -8 -6 -12 -13z m-3 -37 c8 -5 10 -10 4 -10 -6 0 -17
-11 -24 -25 -12 -23 -30 -25 -30 -4 0 6 4 8 8 5 4 -2 14 5 21 16 11 18 11 20
-4 15 -9 -4 -14 -3 -10 3 8 12 16 12 35 0z"/>
<path d="M8465 4500 c-17 -6 -16 -8 8 -14 33 -8 70 7 43 17 -10 4 -15 3 -11
-3 3 -6 2 -10 -4 -10 -5 0 -11 4 -13 9 -1 4 -12 5 -23 1z"/>
<path d="M8565 4491 c-3 -12 -12 -18 -20 -15 -30 12 -37 -9 -8 -27 15 -10 28
-23 28 -28 0 -5 3 -13 8 -17 12 -12 8 -36 -8 -54 -14 -15 -13 -19 5 -40 32
-37 24 -43 -11 -7 -12 12 -19 17 -15 10 3 -6 2 -14 -4 -18 -5 -3 -10 -1 -10 6
0 8 -4 8 -15 -1 -8 -7 -15 -22 -14 -34 0 -11 3 -15 6 -8 2 6 11 12 18 12 7 0
15 6 17 12 3 9 9 8 21 -4 13 -12 14 -18 4 -22 -6 -3 -3 -5 8 -3 25 3 33 33 34
129 1 72 -12 109 -25 74 -9 -23 -23 -20 -17 4 3 11 14 20 24 20 23 0 25 16 3
24 -22 8 -22 8 -29 -13z m32 -53 c-3 -8 -6 -5 -6 6 -1 11 2 17 5 13 3 -3 4
-12 1 -19z m0 -75 c-3 -10 -5 -2 -5 17 0 19 2 27 5 18 2 -10 2 -26 0 -35z m0
-55 c-3 -8 -6 -5 -6 6 -1 11 2 17 5 13 3 -3 4 -12 1 -19z"/>
<path d="M8705 4500 c-13 -6 -15 -9 -5 -9 8 0 22 4 30 9 18 12 2 12 -25 0z"/>
<path d="M9099 4505 c-3 -2 -22 -6 -43 -9 -20 -3 -44 -10 -52 -17 -17 -14 -19
-70 -3 -86 8 -8 7 -13 -1 -18 -7 -4 -16 -1 -21 6 -7 12 -9 11 -8 -1 0 -8 4
-24 8 -34 7 -19 8 -19 15 -1 6 17 9 16 26 -10 18 -28 18 -45 0 -45 -5 0 -7 6
-4 14 6 17 -12 31 -21 16 -3 -5 -1 -10 5 -10 6 0 9 -4 5 -9 -7 -12 29 -33 39
-24 3 3 6 2 6 -4 0 -14 69 -10 98 6 16 8 21 18 17 31 -4 12 0 22 13 29 16 8
19 7 17 -7 -1 -9 -5 -26 -9 -37 -15 -37 -15 -44 -3 -49 9 -3 8 -7 -2 -14 -7
-5 -11 -14 -9 -18 3 -5 -2 -17 -12 -27 -15 -16 -18 -16 -23 -2 -4 9 -1 15 8
15 8 0 15 4 15 9 0 5 -14 4 -30 -2 -17 -7 -26 -13 -20 -15 5 -2 10 -8 10 -14
0 -6 -9 -3 -20 7 -17 15 -24 16 -50 5 -17 -7 -33 -10 -37 -6 -3 3 1 6 10 6 21
0 31 17 16 26 -8 5 -10 2 -5 -7 4 -8 1 -6 -7 4 -17 21 -47 23 -47 3 0 -8 12
-24 26 -35 35 -27 148 -25 181 4 17 14 19 21 10 27 -9 6 -7 12 6 22 18 14 18
15 0 25 -14 8 -15 12 -5 19 15 10 25 222 10 222 -4 0 -5 -7 -2 -15 5 -11 2
-13 -9 -9 -9 3 -13 12 -10 20 3 8 1 14 -5 14 -6 0 -9 -8 -7 -17 2 -10 4 -22 4
-26 1 -5 6 -5 11 -2 6 3 10 -1 10 -10 0 -10 -5 -13 -12 -9 -8 5 -9 2 -4 -12
17 -39 14 -63 -10 -85 -13 -12 -24 -32 -24 -43 0 -15 -3 -17 -9 -8 -6 10 -10
8 -14 -8 -3 -12 -11 -20 -18 -18 -17 6 -24 28 -9 28 6 0 8 -4 5 -10 -3 -5 -1
-10 5 -10 7 0 10 6 8 13 -3 6 -17 12 -31 12 -15 1 -34 8 -43 16 -21 22 -44
113 -32 130 8 11 9 10 4 -3 -3 -10 -1 -20 4 -23 9 -6 14 8 11 27 0 4 6 5 15 1
10 -4 17 2 21 16 6 24 18 27 30 9 4 -7 14 -13 21 -14 36 -3 42 -5 40 -11 -1
-5 3 -18 10 -29 6 -12 8 -24 5 -28 -3 -3 -1 -6 6 -6 9 0 11 6 6 18 -4 9 -10
27 -12 40 -4 14 -13 22 -27 23 -11 0 -15 3 -8 6 10 4 9 8 -5 19 -19 14 -27 17
-34 9z m-64 -25 c-3 -5 -12 -10 -18 -10 -7 0 -6 4 3 10 19 12 23 12 15 0z m35
-190 c0 -5 -2 -10 -4 -10 -3 0 -8 5 -11 10 -3 6 -1 10 4 10 6 0 11 -4 11 -10z
m-65 -80 c3 -5 1 -10 -4 -10 -6 0 -11 5 -11 10 0 6 2 10 4 10 3 0 8 -4 11 -10z"/>
<path d="M9373 4498 c8 -5 4 -8 -9 -8 -12 0 -27 -7 -34 -15 -9 -10 -9 -15 -1
-15 6 0 11 4 11 8 0 9 86 10 95 0 4 -4 12 -5 18 -3 7 3 20 -7 30 -21 15 -20
16 -28 7 -40 -10 -11 -16 -12 -26 -3 -11 9 -14 8 -14 -2 0 -12 -2 -12 -9 0 -6
10 -10 10 -16 1 -6 -9 -9 -9 -15 1 -7 10 -12 10 -23 1 -20 -17 -46 -5 -53 25
-4 13 -11 22 -17 20 -23 -7 -25 -108 -2 -143 22 -35 73 -53 121 -44 l39 8 -35
2 c-29 1 -32 3 -15 10 16 7 13 9 -17 9 -21 1 -38 5 -38 9 0 4 -16 25 -36 46
-27 29 -33 41 -24 50 9 8 11 8 8 -3 -2 -7 3 -16 11 -19 10 -3 11 0 5 9 -6 11
-5 12 7 3 8 -7 51 -11 109 -10 87 1 95 3 95 21 0 11 -6 20 -14 20 -8 0 -16 6
-19 14 -3 8 0 11 7 7 6 -4 11 -2 11 4 0 7 -7 10 -15 6 -8 -3 -15 -1 -15 3 0 5
4 11 9 13 4 2 -1 12 -12 23 -11 11 -17 15 -13 8 3 -6 2 -14 -4 -18 -9 -6 -14
8 -11 28 1 5 -3 6 -9 2 -6 -3 -8 -11 -5 -16 3 -5 -1 -6 -9 -3 -9 3 -14 9 -12
13 3 3 -13 6 -34 6 -22 0 -33 -3 -27 -7z m145 -100 c-2 -6 -10 -13 -16 -14 -7
-1 -8 0 -2 3 5 2 8 9 4 14 -3 5 0 9 6 9 7 0 10 -5 8 -12z m-174 -90 c-4 -6 0
-14 7 -19 8 -5 9 -9 3 -9 -17 0 -37 27 -29 40 3 6 11 8 16 4 5 -3 6 -10 3 -16z"/>
<path d="M10115 4500 c-3 -5 1 -10 10 -10 9 0 13 5 10 10 -3 6 -8 10 -10 10
-2 0 -7 -4 -10 -10z"/>
<path d="M6834 4448 c-1 -29 1 -39 3 -23 10 67 18 38 15 -52 -2 -67 -6 -92
-13 -82 -8 11 -9 10 -7 -6 3 -15 10 -19 27 -17 16 3 21 0 16 -9 -5 -8 -4 -10
4 -5 9 6 9 11 1 21 -7 9 -7 21 0 40 11 28 5 49 -11 40 -5 -4 -9 17 -9 49 0 30
5 58 10 61 11 7 -11 35 -27 35 -5 0 -9 -24 -9 -52z"/>
<path d="M6995 4490 c-3 -5 -1 -10 4 -10 6 0 11 5 11 10 0 6 -2 10 -4 10 -3 0
-8 -4 -11 -10z"/>
<path d="M9878 4493 c6 -2 18 -2 25 0 6 3 1 5 -13 5 -14 0 -19 -2 -12 -5z"/>
<path d="M8701 4464 c0 -11 3 -14 6 -6 3 7 2 16 -1 19 -3 4 -6 -2 -5 -13z"/>
<path d="M9346 4454 c-9 -23 -2 -28 13 -10 7 8 8 17 3 20 -6 3 -13 -1 -16 -10z"/>
<path d="M8168 4453 c7 -3 16 -2 19 1 4 3 -2 6 -13 5 -11 0 -14 -3 -6 -6z"/>
<path d="M8260 4445 c-11 -13 -10 -14 4 -9 9 3 16 10 16 15 0 13 -6 11 -20 -6z"/>
<path d="M6877 4433 c-4 -3 -7 -11 -7 -17 0 -6 5 -5 12 2 6 6 9 14 7 17 -3 3
-9 2 -12 -2z"/>
<path d="M7817 4434 c-7 -8 4 -44 14 -44 5 0 9 -12 9 -26 0 -14 -4 -23 -9 -19
-6 3 -9 -16 -9 -47 1 -29 3 -47 5 -41 3 7 10 10 17 7 10 -4 12 12 8 72 -4 69
-20 113 -35 98z"/>
<path d="M8161 4425 c2 -10 11 -21 19 -23 13 -5 13 -3 1 11 -9 12 -10 17 -2
17 6 0 13 -6 15 -12 2 -7 7 -22 12 -33 4 -11 7 -30 7 -42 0 -29 17 -19 18 10
1 16 3 17 6 5 2 -9 0 -26 -6 -36 -8 -15 -7 -23 5 -33 13 -10 17 -10 25 2 13
20 11 27 -13 70 -15 27 -24 35 -30 27 -6 -10 -8 -8 -8 4 0 9 6 18 13 21 18 6
5 16 -32 23 -28 6 -33 4 -30 -11z m89 -121 c0 -8 -5 -12 -10 -9 -6 4 -8 11 -5
16 9 14 15 11 15 -7z"/>
<path d="M7172 4398 c-13 -13 -16 -60 -5 -71 10 -10 35 31 27 45 -5 8 -10 6
-16 -8 -8 -18 -8 -18 -5 1 2 14 9 19 22 17 16 -3 17 -2 6 12 -16 19 -14 19
-29 4z"/>
<path d="M7687 4386 c-4 -9 -13 -13 -21 -10 -8 3 -17 1 -21 -5 -6 -11 2 -14
38 -14 11 0 17 -7 17 -21 0 -12 4 -26 10 -32 5 -5 5 -15 1 -23 -7 -11 -15 -11
-47 0 -22 7 -45 17 -52 23 -8 6 -17 5 -24 -2 -22 -22 17 -47 69 -45 52 2 85
25 65 45 -7 7 -12 19 -12 27 0 12 2 12 13 -2 11 -16 12 -15 13 8 1 15 -1 24
-4 21 -3 -4 -13 5 -22 20 -14 20 -18 22 -23 10z m-77 -106 c0 -5 -2 -10 -4
-10 -3 0 -8 5 -11 10 -3 6 -1 10 4 10 6 0 11 -4 11 -10z"/>
<path d="M6962 4368 c-7 -7 -12 -19 -12 -27 1 -13 4 -12 16 4 15 19 15 19 9
-6 -10 -42 30 -81 84 -83 23 0 45 4 49 9 4 6 18 12 31 13 18 3 22 0 18 -12 -4
-9 -2 -16 3 -16 6 0 10 4 10 9 0 5 10 7 22 3 14 -3 19 -2 14 6 -4 7 -16 12
-27 12 -11 0 -17 5 -14 10 4 6 16 8 28 5 16 -5 18 -4 8 3 -9 7 -10 12 -2 16 6
4 11 12 11 18 0 6 -9 3 -19 -6 -11 -10 -25 -15 -32 -10 -9 5 -10 2 -6 -10 5
-12 3 -16 -5 -13 -7 2 -12 9 -11 15 2 6 -4 9 -12 5 -11 -4 -13 -9 -5 -18 8 -9
4 -11 -15 -7 -13 2 -33 1 -42 -4 -40 -18 -73 -3 -52 23 7 8 7 18 0 30 -10 17
-10 17 -11 1 0 -10 -5 -18 -10 -18 -6 0 -8 10 -4 24 6 27 -7 41 -24 24z m128
-98 c-20 -13 -33 -13 -25 0 3 6 14 10 23 10 15 0 15 -2 2 -10z"/>
<path d="M204 4325 c-4 -8 -3 -36 1 -61 5 -34 12 -47 30 -54 15 -6 27 -23 36
-52 12 -38 18 -43 47 -46 22 -2 41 3 53 14 23 21 16 34 -20 34 -15 0 -36 6
-46 14 -17 13 -18 18 -7 67 13 53 12 55 -13 77 -30 25 -73 29 -81 7z"/>
<path d="M9170 4320 c0 -5 5 -10 10 -10 6 0 10 5 10 10 0 6 -4 10 -10 10 -5 0
-10 -4 -10 -10z"/>
<path d="M9485 4310 c4 -6 -4 -14 -16 -18 l-23 -9 25 -6 c13 -4 28 -2 33 3 7
7 5 10 -4 10 -12 0 -12 2 -2 9 11 7 10 9 -3 14 -9 4 -14 3 -10 -3z"/>
<path d="M7016 4301 c-3 -5 1 -11 9 -15 15 -6 29 7 18 18 -9 9 -21 8 -27 -3z"/>
<path d="M7683 4295 c0 -8 4 -15 9 -15 4 0 8 4 8 9 0 6 -4 12 -8 15 -5 3 -9
-1 -9 -9z"/>
<path d="M8851 4290 c0 -8 3 -21 8 -29 12 -18 51 3 50 27 0 10 -3 12 -6 5 -2
-7 -13 -13 -23 -13 -10 0 -21 6 -23 13 -4 8 -6 7 -6 -3z"/>
<path d="M8285 4269 c-4 -6 -5 -12 -2 -15 2 -3 7 2 10 11 7 17 1 20 -8 4z"/>
<path d="M412 4131 c4 -13 18 -16 19 -4 0 4 -5 9 -11 12 -7 2 -11 -2 -8 -8z"/>
<path d="M286 3690 c2 -206 9 -519 14 -695 5 -176 10 -401 11 -500 l2 -180
-52 -92 -52 -91 1 -138 2 -139 -86 2 c-47 1 -86 1 -86 0 0 -1 -9 -144 -20
-317 -16 -253 -20 -435 -20 -927 l0 -613 199 0 199 0 9 28 c12 34 6 52 -17 52
-28 0 -71 22 -67 34 2 6 24 18 48 26 l44 16 3 91 c3 84 1 92 -18 98 -25 8 -26
22 -1 30 10 3 26 14 36 25 15 17 16 22 4 36 -18 22 -19 44 -24 669 -3 297 -8
576 -13 620 l-7 79 -35 9 c-55 14 -90 29 -90 38 0 9 57 26 105 31 37 4 39 15
30 125 -7 81 -8 85 -38 103 -54 32 -56 35 -50 102 5 52 13 73 45 119 l40 56
-11 269 c-7 148 -16 364 -21 479 -6 116 -10 282 -10 370 0 174 -7 217 -41 246
-17 15 -20 22 -11 31 13 13 17 42 5 35 -5 -3 -6 24 -5 59 2 40 -1 70 -8 79 -6
8 -10 18 -7 22 3 4 1 26 -4 48 -5 23 -6 -115 -3 -335z m-190 -3495 c3 -14 3
-32 0 -42 -5 -13 -11 -10 -31 17 -31 42 -31 50 0 50 18 0 26 -7 31 -25z"/>
<path d="M5848 4053 l-77 -4 -11 -38 c-18 -67 -22 -125 -11 -154 6 -16 16 -25
21 -22 11 7 7 -21 -12 -85 -15 -47 -13 -147 2 -166 11 -12 11 -28 0 -82 -7
-40 -10 -89 -5 -122 3 -30 5 -77 4 -105 -1 -27 -1 -84 0 -125 0 -41 0 -100 -1
-130 -1 -56 0 -137 2 -225 1 -27 0 -86 -2 -131 -2 -53 1 -86 9 -96 10 -11 9
-31 -4 -94 -15 -74 -15 -84 -1 -129 15 -43 15 -55 2 -117 -9 -43 -12 -81 -7
-101 5 -18 6 -113 3 -211 -5 -171 -4 -179 15 -192 13 -8 64 -14 144 -16 123
-3 125 -3 130 20 8 33 25 32 29 0 4 -37 36 -44 117 -29 34 6 82 11 107 11 24
0 52 6 63 14 16 12 17 18 7 59 -7 25 -12 113 -12 195 0 209 -10 335 -25 322
-16 -13 -25 -2 -25 31 0 27 -18 53 -41 61 -16 5 16 78 35 78 8 0 16 -5 18 -12
10 -29 28 7 27 55 0 29 -3 46 -6 40 -11 -28 -33 -12 -39 27 -6 34 -10 40 -30
40 -29 0 -30 12 -3 67 20 42 49 58 49 28 0 -8 4 -15 9 -15 12 0 21 26 21 61 0
25 -3 29 -19 24 -15 -5 -19 1 -25 35 -5 31 -12 43 -31 50 -21 8 -23 13 -16 38
17 59 61 99 61 56 0 -14 3 -14 15 -4 8 7 15 27 15 46 0 34 -15 54 -23 32 -7
-20 -28 5 -36 44 -5 23 -12 32 -23 30 -9 -1 -20 2 -23 9 -9 13 21 93 41 109
17 15 18 41 3 93 -7 27 -15 37 -24 33 -36 -13 -29 60 10 118 28 41 29 47 15
97 -6 23 -18 39 -30 42 -26 7 -26 41 -1 87 11 19 25 44 31 56 9 16 9 31 0 63
-9 36 -15 42 -32 38 -19 -5 -20 -2 -16 43 3 33 14 61 32 85 28 36 17 48 -15
19 -22 -19 -69 -12 -69 11 0 18 -31 20 -48 3 -7 -7 -12 -24 -12 -39 0 -33 -22
-53 -50 -44 -12 4 -27 1 -36 -6 -8 -6 -17 -9 -20 -7 -11 12 25 77 52 95 l28
18 -69 6 c-39 4 -79 8 -90 11 -11 2 -55 3 -97 1z m93 -27 c-10 -12 -51 -29
-51 -21 0 10 34 35 47 35 12 0 13 -3 4 -14z m169 -124 c0 -14 -49 -56 -57 -49
-3 4 4 18 17 32 24 25 40 32 40 17z m-100 -35 c0 -27 -64 -107 -86 -107 -28 0
-9 54 36 98 38 38 50 40 50 9z m136 -84 c-3 -10 -8 -35 -12 -56 -7 -39 -32
-61 -57 -51 -9 3 -25 1 -36 -5 -19 -11 -19 -10 -9 20 21 62 131 150 114 92z
m-59 -160 c-14 -15 -29 -24 -33 -21 -3 4 6 19 21 33 14 15 29 24 33 21 3 -4
-6 -19 -21 -33z m-67 6 c0 -30 -63 -109 -87 -109 -17 0 -16 14 2 50 23 44 85
88 85 59z m127 -101 c-3 -13 -9 -39 -12 -59 -5 -25 -14 -40 -31 -48 -17 -7
-24 -7 -24 0 0 7 -10 9 -25 5 -14 -4 -25 -4 -25 -1 0 30 85 125 111 125 6 0 9
-10 6 -22z m-52 -148 c-10 -11 -23 -20 -28 -20 -6 0 0 11 13 25 27 29 42 25
15 -5z m-82 -6 c11 -11 -30 -80 -58 -98 -15 -10 -29 -15 -32 -13 -9 10 9 48
39 83 30 34 39 39 51 28z m138 -95 c-5 -13 -12 -41 -16 -61 -4 -26 -12 -39
-27 -44 -13 -4 -24 -2 -26 5 -3 8 -9 8 -24 0 -11 -6 -22 -9 -24 -6 -9 8 59 97
89 116 37 23 41 22 28 -10z m-41 -133 c0 -2 -8 -10 -17 -17 -16 -13 -17 -12
-4 4 13 16 21 21 21 13z m-114 -71 c-26 -33 -56 -45 -56 -22 0 8 14 30 31 48
24 26 32 30 39 19 6 -10 1 -24 -14 -45z m164 -34 c0 -6 -4 -13 -10 -16 -5 -3
-10 -19 -10 -34 0 -39 -22 -66 -46 -56 -10 4 -22 7 -26 7 -19 -4 -5 28 28 66
33 39 64 55 64 33z m-16 -288 c-3 -21 -12 -48 -20 -60 -12 -19 -17 -20 -39
-10 -13 7 -25 15 -25 18 0 10 71 89 81 89 6 0 7 -15 3 -37z m6 -232 c-5 -11
-10 -30 -10 -42 0 -22 -26 -59 -42 -59 -4 0 -8 7 -8 15 0 8 -4 15 -10 15 -19
0 -10 19 25 55 40 39 62 47 45 16z m-170 -206 c-7 -9 -15 -13 -18 -10 -3 2 1
11 8 20 7 9 15 13 18 10 3 -2 -1 -11 -8 -20z m171 -53 c-6 -12 -11 -31 -11
-44 0 -26 -17 -48 -37 -48 -8 0 -13 13 -13 34 0 26 7 41 31 61 35 29 46 27 30
-3z m159 -87 c0 -24 -24 -44 -37 -31 -9 8 14 56 27 56 5 0 10 -11 10 -25z
m-377 -95 c-33 -33 -79 -46 -103 -31 -8 6 -12 12 -10 14 10 8 135 54 139 50 3
-2 -9 -17 -26 -33z m137 -67 c0 -22 -2 -25 -10 -13 -13 20 -13 40 0 40 6 0 10
-12 10 -27z"/>
<path d="M417 4013 c-11 -10 -8 -61 4 -69 6 -3 18 1 27 9 13 13 13 21 4 42
-12 25 -23 31 -35 18z"/>
<path d="M10182 4008 c-34 -34 6 -90 48 -68 35 19 20 80 -20 80 -9 0 -21 -5
-28 -12z"/>
<path d="M9280 3830 l0 -180 35 0 35 0 0 88 c0 75 3 92 19 106 48 44 81 -4 81
-116 l0 -78 30 0 30 0 0 100 c0 109 -10 142 -47 159 -32 15 -52 14 -85 -3
l-28 -15 0 60 0 59 -35 0 -35 0 0 -180z"/>
<path d="M10930 3830 l0 -180 30 0 30 0 0 180 0 180 -30 0 -30 0 0 -180z"/>
<path d="M11209 3981 c-50 -50 -42 -82 42 -163 49 -47 69 -73 65 -84 -3 -8 -6
-18 -6 -20 0 -13 -60 -1 -75 16 -16 18 -20 18 -46 4 -29 -14 -29 -15 -12 -41
18 -28 68 -53 105 -53 39 0 86 36 96 72 13 53 3 74 -64 138 -35 32 -64 66 -64
75 0 24 27 29 56 10 24 -15 27 -15 52 1 l26 17 -32 28 c-45 41 -102 40 -143 0z"/>
<path d="M8260 3993 c0 -9 -47 -275 -56 -315 -5 -26 -3 -28 29 -28 l34 0 17
102 c9 56 18 104 20 106 2 2 19 -43 38 -100 33 -99 36 -103 65 -106 31 -3 31
-3 63 95 18 54 36 101 39 106 4 4 13 -30 20 -75 19 -128 19 -128 52 -128 16 0
29 5 29 13 0 6 -12 85 -26 175 l-27 162 -32 0 c-36 0 -34 3 -81 -135 -15 -44
-30 -83 -33 -87 -4 -4 -24 44 -45 107 l-37 115 -35 0 c-19 0 -34 -3 -34 -7z"/>
<path d="M8725 3906 c-65 -29 -94 -100 -69 -171 17 -50 40 -73 86 -85 49 -14
97 -5 133 24 l29 23 -30 16 c-25 13 -32 13 -49 1 -10 -8 -29 -14 -41 -14 -23
0 -74 35 -74 51 0 5 48 9 106 9 l107 0 -6 36 c-15 93 -111 148 -192 110z m107
-63 c30 -27 21 -33 -47 -33 -50 0 -65 3 -65 15 0 34 80 47 112 18z"/>
<path d="M9035 3901 c-23 -12 -48 -34 -58 -50 -25 -42 -22 -112 5 -147 29 -37
35 -42 81 -54 48 -14 102 -4 135 25 l26 22 -26 17 c-23 15 -28 15 -54 1 -16
-8 -34 -15 -41 -15 -27 0 -62 24 -74 51 -29 71 55 138 118 94 18 -12 27 -13
48 -3 30 13 28 25 -7 51 -39 29 -105 32 -153 8z"/>
<path d="M9623 3900 c-89 -54 -82 -195 12 -244 36 -18 41 -19 82 -4 23 9 43
12 43 7 0 -5 16 -9 35 -9 l35 0 0 130 0 130 -35 0 c-19 0 -35 -5 -35 -10 0 -6
-13 -4 -30 5 -39 20 -68 19 -107 -5z m114 -55 c47 -33 36 -113 -18 -136 -44
-18 -83 13 -87 69 -5 68 52 104 105 67z"/>
<path d="M9988 3904 c-16 -8 -28 -10 -28 -4 0 5 -16 10 -35 10 l-35 0 0 -130
0 -130 35 0 35 0 0 85 c0 72 3 88 20 105 24 24 43 25 64 4 12 -12 16 -37 16
-105 l0 -89 30 0 30 0 0 104 c0 121 -3 132 -41 151 -35 19 -56 18 -91 -1z"/>
<path d="M10370 3903 c-121 -63 -97 -230 37 -258 39 -8 105 9 126 33 16 18 16
20 -3 37 -18 17 -21 17 -55 1 -60 -29 -115 2 -115 64 0 61 61 96 116 67 21
-11 34 -12 51 -4 28 12 26 24 -9 50 -37 28 -105 32 -148 10z"/>
<path d="M10662 3900 c-57 -35 -78 -118 -46 -185 28 -59 91 -85 149 -61 19 8
35 11 35 5 0 -5 16 -9 35 -9 l35 0 0 130 0 130 -35 0 c-19 0 -35 -4 -35 -9 0
-6 -12 -3 -27 5 -38 19 -72 18 -111 -6z m115 -55 c47 -33 36 -113 -18 -136
-44 -18 -83 13 -87 69 -5 68 52 104 105 67z"/>
<path d="M11535 3905 c-19 -10 -31 -12 -33 -6 -2 6 -17 11 -33 11 l-29 0 0
-180 0 -180 30 0 30 0 0 61 c0 54 2 60 18 54 61 -25 74 -27 101 -15 75 31 110
116 78 192 -27 64 -104 94 -162 63z m82 -67 c34 -32 32 -90 -4 -118 -47 -37
-99 -12 -110 52 -4 30 -1 41 20 62 32 32 63 33 94 4z"/>
<path d="M11809 3897 c-43 -29 -59 -60 -59 -117 0 -58 29 -107 78 -127 33 -14
41 -14 80 -1 23 9 42 12 42 7 0 -5 16 -9 35 -9 l35 0 0 130 0 130 -35 0 c-19
0 -35 -5 -35 -10 0 -6 -13 -4 -30 5 -40 21 -71 19 -111 -8z m129 -65 c22 -29
11 -92 -20 -115 -23 -17 -31 -18 -57 -8 -54 23 -65 103 -17 137 26 18 75 11
94 -14z"/>
<path d="M12142 3904 c-12 -8 -22 -10 -22 -5 0 6 -12 11 -27 11 l-28 0 0 -130
0 -130 33 0 32 0 0 79 c0 93 11 131 39 131 19 0 31 18 31 46 0 19 -30 18 -58
-2z"/>
<path d="M12310 3909 c-89 -37 -114 -155 -49 -226 46 -48 143 -50 200 -4 l23
18 -29 15 c-25 14 -31 14 -55 0 -16 -9 -36 -13 -52 -9 -28 7 -58 32 -58 48 0
5 48 9 106 9 l107 0 -6 36 c-11 69 -57 113 -124 120 -21 2 -49 -1 -63 -7z
m101 -68 c13 -11 21 -22 18 -26 -4 -3 -38 -5 -75 -3 l-69 3 23 23 c27 27 72
29 103 3z"/>
<path d="M12590 3913 c-31 -12 -50 -37 -50 -68 0 -34 21 -58 78 -91 55 -32 32
-70 -26 -40 -27 14 -31 14 -47 -4 -22 -24 -9 -44 41 -60 60 -20 124 18 124 75
0 35 -24 62 -77 89 -18 9 -33 21 -33 26 0 17 22 22 46 10 19 -11 26 -11 39 0
23 19 18 38 -15 55 -30 15 -53 18 -80 8z"/>
<path d="M10180 3780 l0 -130 30 0 30 0 0 130 0 130 -30 0 -30 0 0 -130z"/>
<path d="M425 3710 c-3 -5 -1 -116 4 -247 6 -131 13 -429 16 -663 4 -244 10
-429 16 -435 5 -5 26 -10 46 -11 l36 -1 -8 351 c-4 193 -10 407 -14 476 l-7
125 -9 -125 c-5 -69 -11 -114 -13 -100 -2 14 -9 43 -17 65 -9 29 -13 114 -13
298 -1 142 -4 262 -7 267 -8 13 -22 13 -30 0z m75 -966 c0 -13 -4 -24 -10 -24
-5 0 -10 14 -10 31 0 17 4 28 10 24 6 -3 10 -17 10 -31z"/>
<path d="M504 3590 c0 -58 1 -81 3 -52 2 28 2 76 0 105 -2 28 -3 5 -3 -53z"/>
<path d="M4113 3655 c3 -20 18 -61 32 -93 22 -48 25 -66 20 -112 -3 -30 -12
-75 -20 -100 -18 -57 -35 -184 -35 -259 0 -53 30 -165 59 -219 8 -15 6 -33 -9
-76 -27 -79 -43 -210 -34 -276 4 -30 8 -164 8 -297 1 -164 5 -246 12 -253 8
-8 30 -9 70 -3 l58 8 10 55 c17 84 55 77 56 -10 0 -14 5 -32 10 -40 25 -38 31
18 28 268 -2 229 -1 255 15 263 14 8 15 21 11 77 -5 63 8 142 28 168 4 6 17
45 27 87 30 117 61 168 88 145 8 -6 15 -9 16 -7 2 2 15 23 30 47 29 45 36 49
55 30 9 -9 12 -1 12 37 0 46 -1 47 -19 31 -23 -21 -38 -6 -47 45 -12 59 -22
72 -55 65 -28 -5 -29 -4 -23 22 4 15 11 37 15 50 5 13 9 42 9 64 l0 41 -26
-24 c-14 -13 -35 -41 -45 -62 -17 -33 -18 -38 -4 -43 23 -9 19 -51 -6 -59 -19
-6 -19 -8 -5 -24 14 -15 14 -19 0 -39 -8 -12 -23 -22 -33 -22 -20 0 -65 -53
-81 -94 -14 -37 -26 -32 -33 11 -7 41 11 79 41 90 21 7 72 54 72 65 0 4 -7 8
-15 8 -8 0 -15 5 -15 12 0 16 19 76 36 113 7 17 18 50 23 75 6 25 17 62 26 82
24 59 20 72 -40 118 -52 40 -57 42 -81 29 -15 -7 -30 -23 -35 -35 -4 -12 -13
-25 -19 -29 -9 -6 -9 -2 -1 12 8 17 6 22 -14 31 -17 8 -25 20 -25 37 0 25 -1
25 -76 25 l-77 0 6 -35z"/>
<path d="M4577 3654 c-4 -4 -7 -14 -7 -23 0 -11 3 -12 11 -4 6 6 10 16 7 23
-2 6 -7 8 -11 4z"/>
<path d="M4628 3612 c-23 -63 -23 -79 -3 -62 16 13 29 67 23 95 -1 9 -11 -5
-20 -33z"/>
<path d="M6325 3511 c-3 -5 -1 -12 5 -16 5 -3 10 1 10 9 0 18 -6 21 -15 7z"/>
<path d="M501 3387 c1 -43 5 -64 10 -55 11 16 9 93 -3 110 -4 7 -7 -17 -7 -55z"/>
<path d="M7910 3431 c-5 -11 -7 -27 -4 -35 3 -9 2 -16 -3 -16 -5 0 -9 -23 -8
-52 0 -32 -5 -53 -12 -55 -9 -3 -12 10 -12 47 2 74 -8 72 -16 -4 -6 -54 -11
-66 -25 -66 -10 0 -20 -6 -22 -12 -4 -14 2 -397 11 -638 4 -109 7 -104 18 35
l8 100 5 -165 c3 -91 2 -208 -2 -260 -4 -52 -7 -229 -7 -394 0 -164 -3 -301
-6 -304 -19 -19 -23 52 -22 325 1 167 -1 303 -5 303 -5 0 -8 -141 -8 -314 0
-278 -2 -315 -16 -320 -9 -3 -20 -3 -26 0 -5 4 -21 0 -35 -7 -19 -10 -28 -10
-43 -1 -11 7 -27 12 -35 12 -8 0 -15 5 -15 10 0 6 -6 10 -12 10 -18 -1 -53
-28 -46 -36 4 -3 55 -11 115 -18 l108 -12 -53 -12 c-29 -7 -62 -12 -73 -12
-11 0 -28 -4 -38 -9 -20 -11 -131 2 -202 25 -66 20 -68 19 -53 -26 12 -35 12
-45 -1 -70 -17 -32 -20 -76 -6 -84 4 -3 4 -29 -2 -57 -7 -37 -7 -57 1 -69 8
-13 8 -29 2 -52 -14 -47 -13 -395 1 -404 6 -3 9 -15 6 -25 -3 -10 0 -20 7 -23
6 -2 -5 -2 -24 1 -27 4 -40 0 -53 -15 -17 -19 -18 -38 -8 -347 6 -180 11 -340
11 -356 l0 -29 590 0 590 0 2 93 c0 50 -1 135 -3 187 -2 52 -3 168 -1 256 l2
162 -25 6 c-14 4 -25 11 -25 16 0 6 -6 10 -13 10 -10 0 -13 10 -11 33 8 73 2
393 -7 401 -13 14 -11 60 2 73 9 9 9 26 0 69 -7 39 -8 61 -1 68 15 15 12 43
-6 71 -9 13 -13 29 -9 35 12 19 -20 21 -94 5 -77 -16 -220 -21 -169 -5 15 4
67 11 115 15 122 9 163 21 163 45 0 25 -31 26 -92 6 -65 -22 -133 -27 -233
-18 -55 6 -74 10 -50 12 l40 2 -45 12 -45 12 82 7 c46 4 97 10 114 14 l32 6
-24 12 c-27 13 -129 8 -129 -6 0 -10 -40 -12 -64 -3 -9 4 -17 19 -17 38 -1 22
-3 25 -6 9 -2 -12 -11 -27 -19 -33 -12 -11 -14 30 -14 307 0 176 -3 322 -6
325 -3 3 -14 3 -26 0 -20 -5 -20 -9 -18 -311 3 -348 4 -339 -10 -325 -7 7 -15
948 -10 1272 0 6 5 12 10 12 6 0 10 -107 10 -300 0 -279 1 -300 18 -300 16 0
17 19 14 285 -2 193 0 285 8 285 6 0 10 -43 11 -117 2 -199 16 -194 19 7 6
426 3 656 -9 678 -14 27 -27 28 -41 3z m30 -155 c0 -3 -4 -8 -10 -11 -5 -3
-10 -1 -10 4 0 6 5 11 10 11 6 0 10 -2 10 -4z m-50 -46 c0 -16 -4 -30 -9 -30
-5 0 -8 14 -7 30 0 17 4 30 8 30 5 0 8 -13 8 -30z m45 -20 c3 -5 1 -10 -4 -10
-6 0 -11 5 -11 10 0 6 2 10 4 10 3 0 8 -4 11 -10z m-45 -30 c0 -5 -4 -10 -10
-10 -5 0 -10 5 -10 10 0 6 5 10 10 10 6 0 10 -4 10 -10z m50 -11 c0 -6 -4 -7
-10 -4 -5 3 -10 11 -10 16 0 6 5 7 10 4 6 -3 10 -11 10 -16z m0 -40 c0 -6 -4
-7 -10 -4 -5 3 -10 11 -10 16 0 6 5 7 10 4 6 -3 10 -11 10 -16z m-50 -19 c0
-5 -2 -10 -4 -10 -3 0 -8 5 -11 10 -3 6 -1 10 4 10 6 0 11 -4 11 -10z m50 -10
c0 -5 -2 -10 -4 -10 -3 0 -8 5 -11 10 -3 6 -1 10 4 10 6 0 11 -4 11 -10z m-2
-85 c0 -13 -4 -22 -9 -20 -9 6 -8 45 2 45 4 0 7 -11 7 -25z m-48 -5 c0 -5 -2
-10 -4 -10 -3 0 -8 5 -11 10 -3 6 -1 10 4 10 6 0 11 -4 11 -10z m48 -55 c-3
-33 -16 -33 -14 0 0 14 4 25 8 25 4 0 7 -11 6 -25z m-93 -1395 c3 -5 -1 -10
-10 -10 -9 0 -13 5 -10 10 3 6 8 10 10 10 2 0 7 -4 10 -10z m45 -5 c0 -8 -4
-15 -10 -15 -5 0 -7 7 -4 15 4 8 8 15 10 15 2 0 4 -7 4 -15z m75 5 c3 -5 -3
-10 -15 -10 -12 0 -18 5 -15 10 3 6 10 10 15 10 5 0 12 -4 15 -10z m-192 -27
c-7 -2 -19 -2 -25 0 -7 3 -2 5 12 5 14 0 19 -2 13 -5z m124 -19 c-3 -3 -12 -4
-19 -1 -8 3 -5 6 6 6 11 1 17 -2 13 -5z m-412 -14 c18 -8 18 -9 -5 -9 -14 0
-34 4 -45 9 -18 8 -18 9 5 9 14 0 34 -4 45 -9z m185 -21 c10 -6 0 -8 -30 -9
-58 0 -121 11 -115 19 5 10 126 1 145 -10z m238 -16 c-10 -2 -28 -2 -40 0 -13
2 -5 4 17 4 22 1 32 -1 23 -4z m-424 -19 c25 -10 19 -34 -8 -34 -27 0 -41 14
-31 30 7 12 17 12 39 4z m159 -11 c4 -2 7 -13 7 -24 0 -16 -7 -19 -42 -19 -60
0 -73 11 -48 38 20 21 51 23 83 5z m627 -5 c19 -21 20 -23 3 -30 -29 -11 -131
-9 -139 3 -10 16 10 31 53 39 59 12 61 11 83 -12z m-368 -60 c-9 -9 -15 -9
-24 0 -9 9 -7 12 12 12 19 0 21 -3 12 -12z m-331 -80 c42 2 60 -2 70 -14 13
-16 9 -16 -41 -11 -130 15 -161 20 -167 30 -4 7 8 7 38 2 24 -5 69 -8 100 -7z
m714 -7 c8 -14 -49 -23 -115 -19 l-55 3 35 12 c43 14 127 16 135 4z m-379 -40
c-3 -5 -15 -7 -26 -4 -28 7 -25 13 6 13 14 0 23 -4 20 -9z m-396 -92 c11 -6 6
-8 -16 -9 -16 0 -39 7 -50 15 -18 15 -17 16 16 9 19 -3 42 -10 50 -15z m120
-4 c24 -14 23 -14 -27 -15 -49 0 -70 12 -40 23 21 9 41 7 67 -8z m640 5 c24
-15 5 -22 -82 -27 -89 -6 -97 2 -21 23 58 15 83 17 103 4z m-370 -38 c0 -13
-12 -22 -22 -16 -10 6 -1 24 13 24 5 0 9 -4 9 -8z m0 -42 c0 -5 -4 -10 -10
-10 -5 0 -10 5 -10 10 0 6 5 10 10 10 6 0 10 -4 10 -10z m10 -320 c0 -5 -7
-10 -15 -10 -8 0 -15 5 -15 10 0 6 7 10 15 10 8 0 15 -4 15 -10z m-426 -25
c36 -5 50 -11 53 -26 4 -14 11 -18 24 -14 11 4 19 2 19 -4 0 -6 10 -11 23 -11
12 0 29 -5 37 -10 23 -15 -52 -12 -145 5 -114 21 -125 24 -125 34 0 17 32 42
49 37 9 -2 38 -7 65 -11z m816 -35 c0 -5 7 -10 15 -10 8 0 15 -4 15 -9 0 -14
-74 -23 -155 -19 -56 2 -70 6 -73 20 -2 9 5 18 15 21 36 9 183 7 183 -3z
m-392 -57 c-10 -2 -26 -2 -35 0 -10 3 -2 5 17 5 19 0 27 -2 18 -5z m-293 -353
c12 -5 -1 -6 -35 -3 -30 3 -57 7 -59 9 -9 8 75 2 94 -6z m685 0 c-14 -4 -47
-8 -75 -8 l-50 1 45 7 c25 4 59 7 75 8 29 0 29 0 5 -8z m-393 -6 c-3 -3 -12
-4 -19 -1 -8 3 -5 6 6 6 11 1 17 -2 13 -5z m6 -21 c-7 -2 -21 -2 -30 0 -10 3
-4 5 12 5 17 0 24 -2 18 -5z"/>
<path d="M6331 3254 c0 -11 3 -14 6 -6 3 7 2 16 -1 19 -3 4 -6 -2 -5 -13z"/>
<path d="M2100 3078 c0 -9 5 -20 10 -23 13 -8 13 5 0 25 -8 13 -10 13 -10 -2z"/>
<path d="M2131 3064 c0 -11 3 -14 6 -6 3 7 2 16 -1 19 -3 4 -6 -2 -5 -13z"/>
<path d="M4651 2995 c0 -11 -11 -43 -23 -72 -21 -51 -21 -72 1 -59 13 8 35
107 28 131 -5 20 -5 20 -6 0z"/>
<path d="M2127 2906 c-4 -10 -7 -25 -6 -34 0 -11 4 -9 10 7 5 13 8 29 6 35 -2
5 -6 2 -10 -8z"/>
<path d="M4512 2829 c-32 -45 -40 -64 -33 -76 7 -14 15 -7 44 38 67 105 59
135 -11 38z"/>
<path d="M2515 2777 c-2 -7 -11 -40 -18 -74 -12 -52 -12 -63 -1 -63 17 0 36
34 29 52 -3 7 3 30 13 50 19 36 19 37 0 41 -11 3 -21 0 -23 -6z"/>
<path d="M4626 2781 c-5 -7 -3 -18 3 -24 6 -6 11 -21 11 -33 0 -13 5 -26 11
-30 8 -4 9 4 4 27 -13 58 -21 74 -29 60z"/>
<path d="M5428 2745 c3 -21 0 -35 -7 -35 -6 0 -11 11 -11 25 0 14 -3 25 -7 25
-5 0 -33 -16 -63 -35 -30 -19 -63 -35 -75 -35 -45 0 -46 -2 -48 -286 l-2 -269
38 -109 38 -109 -25 -91 c-30 -107 -34 -142 -41 -421 l-5 -210 27 -12 c14 -7
30 -10 35 -7 5 3 20 3 34 0 19 -5 24 -11 19 -25 -4 -12 1 -22 12 -27 13 -6 0
-10 -42 -14 l-59 -5 -7 -40 c-19 -112 -39 -269 -43 -345 -3 -47 -8 -104 -12
-127 -3 -24 -3 -43 2 -43 5 0 10 -37 11 -83 1 -45 7 -148 14 -228 6 -81 10
-168 7 -193 l-6 -46 105 0 105 0 -6 72 c-10 127 -21 544 -20 790 0 204 2 240
16 254 13 13 19 14 37 2 24 -15 23 30 23 -670 l0 -448 168 0 168 0 -4 57 c-2
32 -8 162 -14 288 -35 763 -34 751 -60 765 -25 14 -120 13 -120 -1 0 -6 -6 -9
-12 -6 -7 2 -12 9 -11 15 2 6 -2 23 -7 37 -12 31 7 43 39 25 20 -10 21 -8 21
59 0 38 -4 73 -10 76 -12 7 -12 74 -1 130 8 38 9 37 11 -25 1 -36 5 -87 8
-115 l7 -50 71 -12 c192 -32 189 -28 208 -223 9 -85 16 -162 16 -170 0 -13 1
-13 10 0 12 18 13 80 2 80 -4 0 -9 37 -9 82 -1 59 1 77 8 63 8 -16 8 -14 5 11
-3 17 0 36 7 43 9 9 9 16 0 31 -9 13 -9 20 -1 22 6 2 12 33 13 68 2 36 4 65 4
65 2 0 13 107 12 127 0 9 7 19 15 22 9 3 13 10 10 15 -3 4 -8 32 -11 61 -3 30
-12 61 -20 70 -8 9 -15 24 -15 33 0 17 -25 22 -92 17 -30 -2 -212 18 -240 26
-15 4 -17 -4 -20 -58 l-3 -63 -33 133 c-36 145 -36 168 -2 297 38 140 45 262
24 380 -1 6 -2 54 -3 108 -1 68 -4 96 -12 91 -6 -3 -3 8 6 26 36 69 4 114
-105 152 -25 9 -52 19 -61 22 -12 5 -14 0 -11 -29z m62 -952 c-11 -39 -32 -83
-39 -83 -13 0 -32 42 -27 58 5 15 50 49 68 51 4 1 3 -11 -2 -26z"/>
<path d="M4513 2701 c-24 -30 -43 -57 -43 -61 0 -4 9 -15 19 -24 18 -17 20
-15 46 38 15 30 25 65 23 77 -3 21 -8 18 -45 -30z"/>
<path d="M2500 2557 c-22 -11 -25 -19 -25 -67 l0 -55 195 -5 c107 -3 199 -4
203 -2 4 2 4 9 -1 15 -5 7 -12 24 -16 39 -6 24 -10 27 -49 26 -64 -3 -164 19
-196 41 -33 24 -74 27 -111 8z"/>
<path d="M4652 2440 c0 -14 2 -19 5 -12 2 6 2 18 0 25 -3 6 -5 1 -5 -13z"/>
<path d="M2141 2343 c-13 -47 -14 -63 -2 -63 11 0 27 88 18 96 -3 3 -10 -11
-16 -33z"/>
<path d="M4628 2362 c-7 -11 -26 -26 -42 -34 -27 -14 -33 -14 -85 8 -36 14
-60 19 -66 13 -13 -12 -8 -320 5 -370 12 -43 22 -53 49 -44 24 7 41 47 41 95
0 40 17 90 31 90 11 0 29 -59 29 -94 0 -36 24 -76 45 -76 24 0 34 32 25 79 -4
24 -6 56 -3 70 2 14 7 72 10 128 7 139 -5 182 -39 135z m-58 -212 c0 -5 -5
-10 -11 -10 -5 0 -7 5 -4 10 3 6 8 10 11 10 2 0 4 -4 4 -10z"/>
<path d="M3592 2328 c-2 -19 -22 -26 -22 -8 0 20 -16 9 -27 -17 -6 -16 -36
-85 -67 -155 -31 -71 -56 -132 -56 -138 0 -19 19 -10 26 13 4 12 18 39 31 60
45 71 62 105 73 148 7 26 15 38 19 30 13 -21 33 14 28 51 -2 18 -5 25 -5 16z
m-2 -38 c0 -5 -4 -10 -10 -10 -5 0 -10 5 -10 10 0 6 5 10 10 10 6 0 10 -4 10
-10z"/>
<path d="M3656 2301 c-9 -16 -16 -40 -16 -52 0 -34 28 -5 36 37 9 46 -1 53
-20 15z"/>
<path d="M3424 2263 c-64 -77 -85 -111 -74 -118 5 -3 8 -16 5 -28 -10 -36 6
-66 30 -57 19 7 125 202 125 229 0 15 -17 14 -23 -1 -3 -8 -6 -6 -6 5 -1 27
-15 20 -57 -30z"/>
<path d="M7962 2220 c0 -14 2 -19 5 -12 2 6 2 18 0 25 -3 6 -5 1 -5 -13z"/>
<path d="M7964 1960 c0 -129 2 -182 3 -117 2 64 2 170 0 235 -1 64 -3 11 -3
-118z"/>
<path d="M615 2143 c-17 -9 -51 -17 -78 -18 -26 0 -53 -7 -60 -14 -13 -13 -23
-166 -13 -206 6 -24 8 -25 84 -19 133 9 122 -2 122 122 -1 66 -5 116 -13 129
-12 22 -14 22 -42 6z"/>
<path d="M3655 2109 c-4 -6 -5 -12 -2 -15 2 -3 7 2 10 11 7 17 1 20 -8 4z"/>
<path d="M3920 1879 c0 -41 -17 -253 -26 -326 -6 -51 -5 -53 17 -53 13 0 38
-9 56 -20 36 -22 37 -25 53 -210 6 -69 17 -186 25 -260 8 -74 21 -218 30 -320
8 -102 20 -228 25 -280 5 -52 15 -155 21 -227 13 -145 18 -153 64 -108 26 27
35 87 15 100 -19 12 -10 45 15 55 33 12 32 17 -9 34 -19 8 -37 24 -41 35 -3
12 -13 21 -21 21 -8 0 -14 5 -14 11 0 5 5 7 10 4 6 -3 10 4 11 17 0 22 1 22 8
3 12 -30 19 76 14 227 -2 69 1 146 6 170 11 49 12 71 11 213 0 55 4 115 10
134 7 26 6 48 -5 85 -15 50 -18 155 -6 211 5 23 18 36 55 56 27 15 53 34 58
43 5 9 13 14 17 12 5 -3 18 6 31 19 22 23 23 32 21 136 -3 142 -12 163 -83
183 -29 8 -111 25 -183 36 -71 12 -142 24 -157 27 -26 5 -28 3 -28 -28z"/>
<path d="M4800 1903 c-8 -3 -36 -16 -63 -29 -42 -21 -53 -22 -100 -13 -28 5
-69 7 -89 4 -44 -8 -88 -45 -89 -77 0 -13 -2 -32 -4 -43 -4 -17 -7 -148 -6
-186 1 -24 80 -97 112 -104 23 -5 37 0 74 30 42 35 46 36 80 25 24 -8 40 -21
47 -38 6 -15 14 -36 18 -47 5 -11 13 -47 20 -80 6 -33 14 -69 16 -80 8 -27 13
-59 22 -132 9 -69 14 -78 38 -69 12 5 14 13 10 34 -5 20 -4 23 4 12 12 -19 11
-39 15 225 3 226 -10 490 -26 543 -9 26 -16 32 -37 31 -15 0 -34 -3 -42 -6z"/>
<path d="M809 1869 c-8 -5 -26 -9 -40 -9 -15 0 -37 -8 -49 -18 -21 -17 -23
-26 -21 -105 0 -47 -3 -88 -8 -91 -13 -8 -19 14 -27 91 -10 90 -27 108 -101
100 -91 -9 -86 7 -79 -307 4 -151 9 -309 11 -350 2 -41 7 -212 10 -380 4 -168
9 -312 11 -321 2 -9 0 -27 -5 -41 -5 -14 -5 -60 0 -116 5 -51 11 -143 12 -204
l2 -113 90 0 89 0 9 40 c6 31 4 47 -8 68 -15 25 -15 30 -2 45 10 11 18 49 23
105 4 48 10 87 14 87 4 0 10 -28 14 -62 4 -35 7 -73 9 -84 1 -12 10 -31 20
-42 18 -19 18 -22 3 -44 -20 -29 -20 -67 0 -96 18 -26 84 -31 104 -7 16 19 30
19 30 0 0 -11 11 -15 41 -15 40 0 41 1 35 28 -16 69 -26 223 -26 397 -1 183
-12 328 -89 1105 -11 107 -23 227 -26 267 -7 72 -18 90 -46 72z m99 -1656 c5
-45 -22 -57 -75 -33 -41 18 -60 36 -49 47 8 8 77 21 101 20 15 -2 21 -10 23
-34z"/>
<path d="M3677 1754 c-4 -4 -7 -14 -7 -23 0 -11 3 -12 11 -4 6 6 10 16 7 23
-2 6 -7 8 -11 4z"/>
<path d="M3786 1734 c-3 -9 -2 -23 4 -32 7 -14 9 -10 10 16 0 35 -5 41 -14 16z"/>
<path d="M6455 1684 c-29 -8 -97 -14 -161 -14 -137 0 -174 -6 -174 -30 0 -10
-7 -23 -15 -30 -20 -17 -19 -89 2 -120 12 -17 13 -25 5 -28 -7 -2 -9 -9 -5
-15 5 -7 9 -30 10 -52 2 -22 5 -60 7 -85 2 -25 7 -83 11 -130 3 -46 10 -87 15
-90 4 -3 9 -21 9 -40 3 -63 10 -134 19 -192 11 -59 58 -204 75 -226 7 -8 5
-12 -7 -12 -31 0 2 -39 39 -46 43 -8 45 -20 5 -29 -16 -4 -30 -12 -30 -19 0
-20 12 -27 26 -15 9 7 14 5 19 -10 5 -17 10 -19 30 -9 27 12 35 33 24 65 -5
14 -4 25 4 30 16 11 15 35 -1 48 -11 9 -8 15 12 30 14 11 26 26 26 34 0 12 -3
12 -12 3 -7 -7 -19 -12 -27 -12 -12 0 -12 2 1 18 8 9 18 26 23 37 l7 20 8 -20
c7 -17 9 -14 9 12 1 26 -2 31 -16 27 -15 -5 -15 -3 2 10 21 17 46 18 47 1 0
-21 19 -45 30 -39 7 5 9 -5 6 -30 -2 -20 0 -36 5 -36 5 0 7 -15 5 -34 -3 -25
1 -37 15 -46 10 -6 16 -18 13 -25 -7 -18 8 -139 28 -228 20 -91 23 -227 6
-272 -8 -20 -6 -25 6 -25 13 0 15 -7 11 -30 l-6 -30 64 0 c51 0 65 3 65 15 0
8 -4 15 -10 15 -5 0 -10 10 -10 23 -3 93 -13 169 -21 156 -6 -9 -9 4 -9 39 0
28 4 52 10 52 6 0 6 9 2 23 -5 12 -9 105 -10 207 -2 102 -7 212 -12 245 -6 33
-10 93 -10 133 0 41 -4 126 -10 190 -5 64 -17 220 -25 345 -9 126 -19 235 -22
243 -6 17 -42 17 -108 -2z m25 -889 c0 -8 -4 -15 -10 -15 -5 0 -10 7 -10 15 0
8 5 15 10 15 6 0 10 -7 10 -15z m97 -557 c-2 -13 -4 -3 -4 22 0 25 2 35 4 23
2 -13 2 -33 0 -45z"/>
<path d="M1516 1641 c-3 -5 -26 -325 -52 -712 -38 -596 -44 -715 -34 -775 6
-38 8 -78 4 -87 -10 -28 4 -67 25 -67 14 0 20 10 24 41 3 23 9 45 14 50 14 14
53 -20 69 -57 l14 -34 159 0 159 0 6 31 c3 17 6 35 6 40 0 5 -34 9 -75 9 -47
0 -75 4 -75 11 0 7 26 10 78 8 l77 -4 -2 55 c-1 30 -2 303 -2 605 -1 569 -7
813 -22 836 -5 9 -36 16 -81 20 -40 4 -118 14 -173 23 -120 19 -113 18 -119 7z"/>
<path d="M8315 1580 c-3 -5 -2 -10 4 -10 5 0 13 5 16 10 3 6 2 10 -4 10 -5 0
-13 -4 -16 -10z"/>
<path d="M8250 1570 c-12 -8 -9 -10 13 -10 16 0 26 4 22 10 -8 12 -16 12 -35
0z"/>
<path d="M7568 1563 c6 -2 18 -2 25 0 6 3 1 5 -13 5 -14 0 -19 -2 -12 -5z"/>
<path d="M8200 1560 c19 -13 30 -13 30 0 0 6 -10 10 -22 10 -19 0 -20 -2 -8
-10z"/>
<path d="M3656 1544 c-3 -9 -4 -19 -1 -24 3 -4 -2 -11 -11 -14 -8 -3 -12 -2
-9 4 3 5 -3 8 -12 7 -13 -1 -19 -10 -20 -34 -1 -28 3 -34 23 -39 32 -8 52 9
36 29 -7 8 -9 17 -6 20 7 7 16 67 10 67 -2 0 -7 -7 -10 -16z"/>
<path d="M3615 1420 c-18 -8 -17 -9 7 -9 15 -1 30 4 33 9 7 12 -12 12 -40 0z"/>
<path d="M3956 1403 c-3 -3 -6 -24 -6 -45 0 -26 -4 -38 -12 -36 -20 4 -58 -21
-58 -37 0 -8 -3 -15 -8 -15 -13 0 -61 57 -72 84 -9 24 -14 26 -64 26 -77 0
-102 -12 -111 -52 -14 -66 -22 -332 -9 -348 6 -8 14 -44 18 -80 3 -36 8 -87
11 -115 3 -27 7 -78 9 -112 3 -33 9 -70 15 -81 13 -25 14 -35 2 -28 -5 3 -7
-16 -5 -42 3 -26 5 -105 7 -177 1 -95 6 -133 16 -141 11 -9 11 -13 -3 -26 -20
-21 -20 -28 0 -28 8 0 13 -4 9 -9 -3 -5 -1 -12 5 -16 16 -10 12 -25 -5 -19
-18 7 -18 8 -4 -56 l11 -50 83 0 84 0 10 36 c7 25 6 43 -1 60 -18 40 3 74 46
74 31 0 36 -4 44 -34 6 -18 8 -44 5 -57 -2 -13 0 -36 6 -52 10 -25 14 -27 72
-27 l62 0 -7 51 c-4 28 -11 101 -16 163 -6 61 -14 152 -20 201 -5 50 -17 178
-25 285 -8 107 -17 206 -20 220 -2 14 -9 86 -15 160 -14 180 -31 319 -40 325
-4 2 -10 2 -14 -2z m-14 -615 c-7 -7 -12 -8 -12 -2 0 14 12 26 19 19 2 -3 -1
-11 -7 -17z m6 -20 c7 21 23 12 20 -10 -2 -17 -9 -22 -25 -20 -26 4 -28 -1
-13 -28 7 -13 6 -21 -5 -30 -11 -9 -15 -9 -15 -1 0 6 -11 11 -25 11 -14 0 -24
3 -24 8 3 19 -2 33 -11 27 -5 -3 -10 0 -10 9 0 8 13 17 29 21 23 5 28 10 23
23 -5 15 -3 15 23 -2 20 -13 30 -15 33 -8z m-53 -119 c10 -15 -1 -23 -20 -15
-9 3 -13 10 -10 16 8 13 22 13 30 -1z m39 -71 c6 -34 5 -38 -14 -38 -19 0 -21
-5 -18 -42 3 -36 6 -43 23 -41 11 1 14 0 8 -3 -18 -8 -16 -35 3 -49 13 -9 17
-32 19 -101 2 -100 -1 -114 -22 -114 -10 0 -13 6 -9 16 3 8 2 12 -4 9 -13 -8
-61 25 -54 37 3 5 18 7 33 3 25 -6 25 -6 6 9 -17 13 -18 17 -5 25 12 8 11 11
-5 17 -33 12 -59 44 -46 57 6 6 11 27 11 47 0 20 3 40 7 44 4 4 12 27 18 51 9
35 9 47 -1 57 -17 17 -7 56 15 61 22 5 28 -2 35 -45z m1 -98 c3 -5 1 -10 -4
-10 -6 0 -11 5 -11 10 0 6 2 10 4 10 3 0 8 -4 11 -10z"/>
<path d="M3905 599 c-4 -12 -2 -26 4 -32 8 -8 11 -2 11 21 0 37 -6 41 -15 11z"/>
<path d="M4942 1018 c-7 -68 -19 -222 -27 -343 -8 -121 -17 -242 -19 -270 -2
-27 -4 -63 -5 -79 -1 -16 -4 -27 -7 -23 -4 3 -23 -1 -43 -9 -26 -10 -49 -12
-81 -6 -54 9 -167 -1 -182 -16 -9 -9 -7 -17 7 -32 11 -12 20 -40 22 -72 6 -67
15 -78 69 -78 49 0 64 14 34 30 -11 6 -20 18 -20 26 0 12 8 14 44 9 36 -6 48
-3 64 13 11 11 21 25 24 33 3 10 11 8 31 -7 25 -18 26 -23 27 -106 l0 -88 29
0 28 0 6 113 c4 103 19 177 35 177 4 0 14 -5 22 -11 11 -8 12 -12 3 -16 -16
-6 -17 -33 -2 -33 8 0 10 -34 7 -115 -4 -104 -3 -115 13 -115 15 0 18 13 22
88 3 48 8 105 12 127 3 22 7 47 7 55 0 8 6 22 13 30 21 26 32 73 27 120 -4 52
-6 122 -3 165 1 17 -1 98 -4 180 -3 83 -7 195 -8 250 -2 107 -16 130 -30 48
-5 -32 -15 -53 -28 -62 -12 -7 -23 -10 -26 -8 -2 3 -5 36 -7 74 -2 59 -5 68
-23 71 -18 3 -20 -6 -31 -120z"/>
<path d="M5870 1126 c0 -9 -7 -12 -21 -9 -43 12 -43 17 -13 -417 24 -353 44
-664 44 -682 0 -21 36 -25 43 -5 4 9 6 9 6 0 1 -8 15 -13 36 -13 27 0 35 4 35
18 0 9 -18 208 -40 442 -22 234 -45 482 -51 553 -9 94 -16 127 -26 127 -7 0
-13 -6 -13 -14z m39 -601 c0 -5 -4 -3 -9 5 -5 8 -9 22 -9 30 0 16 17 -16 18
-35z m-22 -17 c-3 -8 -6 -5 -6 6 -1 11 2 17 5 13 3 -3 4 -12 1 -19z m30 -100
c-3 -8 -6 -5 -6 6 -1 11 2 17 5 13 3 -3 4 -12 1 -19z m20 -280 c-3 -8 -6 -5
-6 6 -1 11 2 17 5 13 3 -3 4 -12 1 -19z m10 -80 c-2 -13 -4 -3 -4 22 0 25 2
35 4 23 2 -13 2 -33 0 -45z"/>
<path d="M12570 989 c-69 -39 -127 -73 -129 -75 -2 -2 -3 -74 -3 -161 l1 -157
83 -47 c77 -44 83 -47 86 -28 6 33 -4 45 -62 79 l-56 31 0 124 0 124 97 57
c53 31 105 59 115 62 16 4 18 -10 20 -222 l3 -226 83 47 c73 41 82 49 82 75
l0 29 -54 -30 c-29 -17 -56 -31 -60 -31 -3 0 -6 20 -6 45 l0 45 60 0 c57 0 60
1 60 25 0 24 -3 25 -60 25 l-60 0 0 45 c0 25 2 45 5 45 3 0 30 -14 60 -31 l55
-31 0 29 c0 25 -8 34 -60 63 l-60 34 0 48 c0 43 -3 49 -30 63 -16 8 -33 15
-37 15 -4 0 -64 -32 -133 -71z"/>
<path d="M12800 981 c0 -27 7 -34 60 -63 l60 -33 -2 -129 -3 -129 -98 -59
c-55 -32 -105 -58 -113 -58 -12 0 -14 38 -14 225 l0 225 -24 -11 c-19 -9 -29
-27 -42 -75 -9 -35 -20 -64 -24 -64 -4 0 -12 18 -19 40 -11 37 -13 39 -36 28
-24 -11 -25 -14 -25 -121 0 -93 3 -112 18 -123 9 -7 20 -14 25 -14 4 0 7 35 8
78 l0 77 16 -38 16 -38 18 38 17 38 1 -145 1 -145 34 -19 34 -18 129 75 128
74 3 156 3 156 -38 24 c-21 13 -59 36 -85 51 l-48 28 0 -31z"/>
<path d="M4881 844 c0 -11 3 -14 6 -6 3 7 2 16 -1 19 -3 4 -6 -2 -5 -13z"/>
<path d="M6313 453 c-7 -2 -13 -17 -13 -33 0 -15 6 -32 13 -38 9 -8 12 0 12
34 0 24 0 44 0 43 0 0 -6 -3 -12 -6z"/>
</g>
</svg>
